<svg xmlns="http://www.w3.org/2000/svg" viewBox="0 0 24 24" fill="currentColor" class="size-6">
  <path d="M12.75 12.75a.75.75 0 0 1 1.06 0l7.22 7.22H3.75v-6.894a8.716 8.716 0 0 0 4.197-2.465 8.716 8.716 0 0 0 2.135-4.301c.074-1.047.163-2.089.26-3.13a.75.75 0 0 1 .92-1.047 18.713 18.713 0 0 1 5.094 0A.75.75 0 0 1 18 3.75v.75a.75.75 0 0 0 1.5 0V3.75A2.25 2.25 0 0 0 17.25 1.5h-3a2.25 2.25 0 0 0-2.25 2.25V4.5c0 .087.009.175.026.26l.138.694c.162.813.272 1.63.328 2.45.034.491.074.982.12 1.472A8.995 8.995 0 0 1 12.75 12.75Z" />
  <path d="M6.571 6.25a.75.75 0 0 0-1.5 0v.751A9.754 9.754 0 0 0 3 14.25v2.816l-1.447 1.374a.75.75 0 0 0 .004 1.063l.666.666A.75.75 0 0 0 3 20.25h18a.75.75 0 0 0 .53-.22l.666-.666a.75.75 0 0 0 .004-1.063L21 17.066V14.25a9.754 9.754 0 0 0-2.071-7.249V6.25a.75.75 0 0 0-1.5 0v.75a.75.75 0 0 1-1.5 0v-.75a.75.75 0 0 0-1.5 0v.75a.75.75 0 0 1-1.5 0v-.75a.75.75 0 0 0-1.5 0v.75a.75.75 0 0 1-1.5 0v-.75ZM7.5 14.25a.75.75 0 0 0 0 1.5h.008a.75.75 0 0 0 0-1.5H7.5Zm4.5 0a.75.75 0 0 0 0 1.5h.008a.75.75 0 0 0 0-1.5H12Zm4.5 0a.75.75 0 0 0 0 1.5h.008a.75.75 0 0 0 0-1.5H16.5Zm-9 3a.75.75 0 0 0 0 1.5h.008a.75.75 0 0 0 0-1.5H7.5Zm4.5 0a.75.75 0 0 0 0 1.5h.008a.75.75 0 0 0 0-1.5H12Zm4.5 0a.75.75 0 0 0 0 1.5h.008a.75.75 0 0 0 0-1.5H16.5Z" />
</svg> 